g Custom Mesh - Baked
v 0.9166098 0.5246053 14.37457
v 1 0.441215 14.37457
v 0.9166098 0.441215 15
v 0.9166098 0.4412141 4.505387E-07
v 1 0.4412142 0.6254272
v 0.9166098 0.5246044 0.6254272
v 1 -0.4412142 14.37457
v 0.9166098 -0.5246044 14.37457
v 0.9166098 -0.4412141 15
v 1 -0.441215 0.6254272
v 0.9166098 -0.441215 5.031356E-07
v 0.9166098 -0.5246053 0.6254273
v -0.9166098 0.5246053 14.37457
v -0.9166098 0.441215 15
v -1 0.441215 14.37457
v -1 0.4412142 0.6254272
v -0.9166098 0.4412141 4.505387E-07
v -0.9166098 0.5246044 0.6254272
v -1 -0.4412142 14.37457
v -0.9166098 -0.4412141 15
v -0.9166098 -0.5246044 14.37457
v -0.9166098 -0.441215 5.031356E-07
v -1 -0.441215 0.6254272
v -0.9166098 -0.5246053 0.6254273
v -0.9166098 0.4412141 4.505387E-07
v -0.9166098 -0.441215 5.031356E-07
v 0.9166098 -0.441215 5.031356E-07
v 0.9166098 0.4412141 4.505387E-07
v -1 -0.441215 0.6254272
v -1 0.4412142 0.6254272
v -1 0.441215 14.37457
v -1 -0.4412142 14.37457
v 0.9166098 -0.5246053 0.6254273
v -0.9166098 -0.5246053 0.6254273
v -0.9166098 -0.5246044 14.37457
v 0.9166098 -0.5246044 14.37457
v 0.9166098 0.441215 15
v 0.9166098 -0.4412141 15
v -0.9166098 -0.4412141 15
v -0.9166098 0.441215 15
v 1 0.4412142 0.6254272
v 1 -0.441215 0.6254272
v 1 -0.4412142 14.37457
v 1 0.441215 14.37457
v -0.9166098 0.4412141 4.505387E-07
v -1 0.4412142 0.6254272
v -1 -0.441215 0.6254272
v -0.9166098 -0.441215 5.031356E-07
v 0.9166098 0.4412141 4.505387E-07
v 0.9166098 0.5246044 0.6254272
v -0.9166098 0.5246044 0.6254272
v -0.9166098 0.4412141 4.505387E-07
v 1 0.441215 14.37457
v 0.9166098 0.5246053 14.37457
v 0.9166098 0.5246044 0.6254272
v 1 0.4412142 0.6254272
v -0.9166098 -0.5246053 0.6254273
v -1 -0.441215 0.6254272
v -1 -0.4412142 14.37457
v -0.9166098 -0.5246044 14.37457
v 0.9166098 -0.5246044 14.37457
v 1 -0.4412142 14.37457
v 1 -0.441215 0.6254272
v 0.9166098 -0.5246053 0.6254273
v -0.9166098 0.5246053 14.37457
v -1 0.441215 14.37457
v -1 0.4412142 0.6254272
v -0.9166098 0.5246044 0.6254272
v 0.9166098 -0.4412141 15
v 0.9166098 -0.5246044 14.37457
v -0.9166098 -0.5246044 14.37457
v -0.9166098 -0.4412141 15
v 0.9166098 0.441215 15
v 1 0.441215 14.37457
v 1 -0.4412142 14.37457
v 0.9166098 -0.4412141 15
v -0.9166098 -0.441215 5.031356E-07
v -0.9166098 -0.5246053 0.6254273
v 0.9166098 -0.5246053 0.6254273
v 0.9166098 -0.441215 5.031356E-07
v -0.9166098 -0.4412141 15
v -1 -0.4412142 14.37457
v -1 0.441215 14.37457
v -0.9166098 0.441215 15
v -0.9166098 0.441215 15
v -0.9166098 0.5246053 14.37457
v 0.9166098 0.5246053 14.37457
v 0.9166098 0.441215 15
v 0.9166098 -0.441215 5.031356E-07
v 1 -0.441215 0.6254272
v 1 0.4412142 0.6254272
v 0.9166098 0.4412141 4.505387E-07
v -0.9166098 0.5246044 0.6254272
v 0.9166098 0.5246044 0.6254272
v 0.9166098 0.5246053 14.37457
v -0.9166098 0.5246053 14.37457

vn 0.5773497 0.577351 0.5773503
vn 0.5773497 0.577351 0.5773503
vn 0.5773497 0.577351 0.5773503
vn 0.5773497 0.5773509 -0.5773504
vn 0.5773497 0.5773509 -0.5773504
vn 0.5773497 0.5773509 -0.5773504
vn 0.5773497 -0.5773509 0.5773504
vn 0.5773497 -0.5773509 0.5773504
vn 0.5773497 -0.5773509 0.5773504
vn 0.5773497 -0.577351 -0.5773503
vn 0.5773497 -0.577351 -0.5773503
vn 0.5773497 -0.577351 -0.5773503
vn -0.5773497 0.577351 0.5773503
vn -0.5773497 0.577351 0.5773503
vn -0.5773497 0.577351 0.5773503
vn -0.5773497 0.5773509 -0.5773504
vn -0.5773497 0.5773509 -0.5773504
vn -0.5773497 0.5773509 -0.5773504
vn -0.5773497 -0.5773509 0.5773504
vn -0.5773497 -0.5773509 0.5773504
vn -0.5773497 -0.5773509 0.5773504
vn -0.5773497 -0.577351 -0.5773503
vn -0.5773497 -0.577351 -0.5773503
vn -0.5773497 -0.577351 -0.5773503
vn 0 -5.960464E-08 -1
vn 0 -5.960464E-08 -1
vn 0 -5.960464E-08 -1
vn 0 -5.960464E-08 -1
vn -1 0 0
vn -1 0 0
vn -1 0 0
vn -1 0 0
vn 0 -1 5.960464E-08
vn 0 -1 5.960464E-08
vn 0 -1 5.960464E-08
vn 0 -1 5.960464E-08
vn 0 5.960464E-08 1
vn 0 5.960464E-08 1
vn 0 5.960464E-08 1
vn 0 5.960464E-08 1
vn 1 0 0
vn 1 0 0
vn 1 0 0
vn 1 0 0
vn -0.7071068 -4.214685E-08 -0.7071068
vn -0.7071068 -4.214685E-08 -0.7071068
vn -0.7071068 -4.214685E-08 -0.7071068
vn -0.7071068 -4.214685E-08 -0.7071068
vn 0 0.7071066 -0.707107
vn 0 0.7071066 -0.707107
vn 0 0.7071066 -0.707107
vn 0 0.7071066 -0.707107
vn 0.707107 0.7071065 -4.214683E-08
vn 0.707107 0.7071065 -4.214683E-08
vn 0.707107 0.7071065 -4.214683E-08
vn 0.707107 0.7071065 -4.214683E-08
vn -0.707107 -0.7071065 4.214683E-08
vn -0.707107 -0.7071065 4.214683E-08
vn -0.707107 -0.7071065 4.214683E-08
vn -0.707107 -0.7071065 4.214683E-08
vn 0.707107 -0.7071065 4.214683E-08
vn 0.707107 -0.7071065 4.214683E-08
vn 0.707107 -0.7071065 4.214683E-08
vn 0.707107 -0.7071065 4.214683E-08
vn -0.707107 0.7071065 -4.214683E-08
vn -0.707107 0.7071065 -4.214683E-08
vn -0.707107 0.7071065 -4.214683E-08
vn -0.707107 0.7071065 -4.214683E-08
vn 0 -0.7071066 0.707107
vn 0 -0.7071066 0.707107
vn 0 -0.7071066 0.707107
vn 0 -0.7071066 0.707107
vn 0.7071068 4.214685E-08 0.7071068
vn 0.7071068 4.214685E-08 0.7071068
vn 0.7071068 4.214685E-08 0.7071068
vn 0.7071068 4.214685E-08 0.7071068
vn 0 -0.7071067 -0.7071069
vn 0 -0.7071067 -0.7071069
vn 0 -0.7071067 -0.7071069
vn 0 -0.7071067 -0.7071069
vn -0.7071068 4.214685E-08 0.7071068
vn -0.7071068 4.214685E-08 0.7071068
vn -0.7071068 4.214685E-08 0.7071068
vn -0.7071068 4.214685E-08 0.7071068
vn 0 0.7071067 0.7071069
vn 0 0.7071067 0.7071069
vn 0 0.7071067 0.7071069
vn 0 0.7071067 0.7071069
vn 0.7071068 -4.214685E-08 -0.7071068
vn 0.7071068 -4.214685E-08 -0.7071068
vn 0.7071068 -4.214685E-08 -0.7071068
vn 0.7071068 -4.214685E-08 -0.7071068
vn 0 1 -5.960464E-08
vn 0 1 -5.960464E-08
vn 0 1 -5.960464E-08
vn 0 1 -5.960464E-08

vt 0.6145762 0.4895762
vt 0.6145762 0.5
vt 0.625 0.4895762
vt 0.3645762 0.5198698
vt 0.375 0.5198698
vt 0.3645762 0.5
vt 0.6145762 0.7301302
vt 0.6145762 0.75
vt 0.625 0.7301302
vt 0.3854238 0.75
vt 0.375 0.7604238
vt 0.375 0.7604238
vt 0.6145762 0.25
vt 0.625 0.2301302
vt 0.625 0.2301302
vt 0.3854238 0.2301302
vt 0.375 0.2301302
vt 0.3854238 0.25
vt 0.6145762 0.01986978
vt 0.625 0.01986978
vt 0.6145762 0
vt 0.1354238 0.7301302
vt 0.125 0.7301302
vt 0.1354238 0.75
vt 0.1354238 0.5198697
vt 0.1354238 0.7301302
vt 0.3645762 0.7301302
vt 0.3645762 0.5198698
vt 0.3854238 0.01986978
vt 0.3854238 0.2301302
vt 0.6145762 0.2301302
vt 0.6145762 0.01986978
vt 0.3854237 0.7604237
vt 0.3854237 0.9895762
vt 0.6145762 0.9895762
vt 0.6145762 0.7604237
vt 0.6354237 0.5198697
vt 0.6354238 0.7301302
vt 0.8645762 0.7301302
vt 0.8645762 0.5198698
vt 0.3854238 0.5198697
vt 0.3854238 0.7301302
vt 0.6145762 0.7301302
vt 0.6145762 0.5198698
vt 0.1354238 0.5198697
vt 0.125 0.5198698
vt 0.125 0.7301302
vt 0.1354238 0.7301302
vt 0.3645762 0.5198698
vt 0.3645762 0.5
vt 0.1354238 0.5
vt 0.1354238 0.5198697
vt 0.6145762 0.5198698
vt 0.6145762 0.4895762
vt 0.3854237 0.4895762
vt 0.3854238 0.5198697
vt 0.3854238 0
vt 0.3854238 0.01986978
vt 0.6145762 0.01986978
vt 0.6145762 0
vt 0.6145762 0.7604237
vt 0.6145762 0.7301302
vt 0.3854238 0.7301302
vt 0.3854237 0.7604237
vt 0.6145762 0.2604238
vt 0.6145762 0.2301302
vt 0.3854238 0.2301302
vt 0.3854237 0.2604238
vt 0.625 0.7604238
vt 0.6145762 0.7604237
vt 0.6145762 0.9895762
vt 0.625 0.9895762
vt 0.6354237 0.5198697
vt 0.6145762 0.5198698
vt 0.6145762 0.7301302
vt 0.6354238 0.7301302
vt 0.1354238 0.7301302
vt 0.1354238 0.75
vt 0.3645762 0.75
vt 0.3645762 0.7301302
vt 0.625 0.01986978
vt 0.6145762 0.01986978
vt 0.6145762 0.2301302
vt 0.625 0.2301302
vt 0.625 0.2604238
vt 0.6145762 0.2604238
vt 0.6145762 0.4895762
vt 0.625 0.4895762
vt 0.3645762 0.7301302
vt 0.3854238 0.7301302
vt 0.3854238 0.5198697
vt 0.3645762 0.5198698
vt 0.3854237 0.2604238
vt 0.3854237 0.4895762
vt 0.6145762 0.4895762
vt 0.6145762 0.2604238

vt2 0 0
vt2 0 0
vt2 0 0
vt2 0 0
vt2 0 0
vt2 0 0
vt2 0 0
vt2 0 0
vt2 0 0
vt2 0 0
vt2 0 0
vt2 0 0
vt2 0 0
vt2 0 0
vt2 0 0
vt2 0 0
vt2 0 0
vt2 0 0
vt2 0 0
vt2 0 0
vt2 0 0
vt2 0 0
vt2 0 0
vt2 0 0
vt2 0 0
vt2 0 0
vt2 0 0
vt2 0 0
vt2 0 0
vt2 0 0
vt2 0 0
vt2 0 0
vt2 0 0
vt2 0 0
vt2 0 0
vt2 0 0
vt2 0 0
vt2 0 0
vt2 0 0
vt2 0 0
vt2 0 0
vt2 0 0
vt2 0 0
vt2 0 0
vt2 0 0
vt2 0 0
vt2 0 0
vt2 0 0
vt2 0 0
vt2 0 0
vt2 0 0
vt2 0 0
vt2 0 0
vt2 0 0
vt2 0 0
vt2 0 0
vt2 0 0
vt2 0 0
vt2 0 0
vt2 0 0
vt2 0 0
vt2 0 0
vt2 0 0
vt2 0 0
vt2 0 0
vt2 0 0
vt2 0 0
vt2 0 0
vt2 0 0
vt2 0 0
vt2 0 0
vt2 0 0
vt2 0 0
vt2 0 0
vt2 0 0
vt2 0 0
vt2 0 0
vt2 0 0
vt2 0 0
vt2 0 0
vt2 0 0
vt2 0 0
vt2 0 0
vt2 0 0
vt2 0 0
vt2 0 0
vt2 0 0
vt2 0 0
vt2 0 0
vt2 0 0
vt2 0 0
vt2 0 0
vt2 0 0
vt2 0 0
vt2 0 0
vt2 0 0

vt2 0 0
vt2 0 0
vt2 0 0
vt2 0 0
vt2 0 0
vt2 0 0
vt2 0 0
vt2 0 0
vt2 0 0
vt2 0 0
vt2 0 0
vt2 0 0
vt2 0 0
vt2 0 0
vt2 0 0
vt2 0 0
vt2 0 0
vt2 0 0
vt2 0 0
vt2 0 0
vt2 0 0
vt2 0 0
vt2 0 0
vt2 0 0
vt2 0 0
vt2 0 0
vt2 0 0
vt2 0 0
vt2 0 0
vt2 0 0
vt2 0 0
vt2 0 0
vt2 0 0
vt2 0 0
vt2 0 0
vt2 0 0
vt2 0 0
vt2 0 0
vt2 0 0
vt2 0 0
vt2 0 0
vt2 0 0
vt2 0 0
vt2 0 0
vt2 0 0
vt2 0 0
vt2 0 0
vt2 0 0
vt2 0 0
vt2 0 0
vt2 0 0
vt2 0 0
vt2 0 0
vt2 0 0
vt2 0 0
vt2 0 0
vt2 0 0
vt2 0 0
vt2 0 0
vt2 0 0
vt2 0 0
vt2 0 0
vt2 0 0
vt2 0 0
vt2 0 0
vt2 0 0
vt2 0 0
vt2 0 0
vt2 0 0
vt2 0 0
vt2 0 0
vt2 0 0
vt2 0 0
vt2 0 0
vt2 0 0
vt2 0 0
vt2 0 0
vt2 0 0
vt2 0 0
vt2 0 0
vt2 0 0
vt2 0 0
vt2 0 0
vt2 0 0
vt2 0 0
vt2 0 0
vt2 0 0
vt2 0 0
vt2 0 0
vt2 0 0
vt2 0 0
vt2 0 0
vt2 0 0
vt2 0 0
vt2 0 0
vt2 0 0

vc 1 1 1 1
vc 1 1 1 1
vc 1 1 1 1
vc 1 1 1 1
vc 1 1 1 1
vc 1 1 1 1
vc 1 1 1 1
vc 1 1 1 1
vc 1 1 1 1
vc 1 1 1 1
vc 1 1 1 1
vc 1 1 1 1
vc 1 1 1 1
vc 1 1 1 1
vc 1 1 1 1
vc 1 1 1 1
vc 1 1 1 1
vc 1 1 1 1
vc 1 1 1 1
vc 1 1 1 1
vc 1 1 1 1
vc 1 1 1 1
vc 1 1 1 1
vc 1 1 1 1
vc 1 1 1 1
vc 1 1 1 1
vc 1 1 1 1
vc 1 1 1 1
vc 1 1 1 1
vc 1 1 1 1
vc 1 1 1 1
vc 1 1 1 1
vc 1 1 1 1
vc 1 1 1 1
vc 1 1 1 1
vc 1 1 1 1
vc 1 1 1 1
vc 1 1 1 1
vc 1 1 1 1
vc 1 1 1 1
vc 1 1 1 1
vc 1 1 1 1
vc 1 1 1 1
vc 1 1 1 1
vc 1 1 1 1
vc 1 1 1 1
vc 1 1 1 1
vc 1 1 1 1
vc 1 1 1 1
vc 1 1 1 1
vc 1 1 1 1
vc 1 1 1 1
vc 1 1 1 1
vc 1 1 1 1
vc 1 1 1 1
vc 1 1 1 1
vc 1 1 1 1
vc 1 1 1 1
vc 1 1 1 1
vc 1 1 1 1
vc 1 1 1 1
vc 1 1 1 1
vc 1 1 1 1
vc 1 1 1 1
vc 1 1 1 1
vc 1 1 1 1
vc 1 1 1 1
vc 1 1 1 1
vc 1 1 1 1
vc 1 1 1 1
vc 1 1 1 1
vc 1 1 1 1
vc 1 1 1 1
vc 1 1 1 1
vc 1 1 1 1
vc 1 1 1 1
vc 1 1 1 1
vc 1 1 1 1
vc 1 1 1 1
vc 1 1 1 1
vc 1 1 1 1
vc 1 1 1 1
vc 1 1 1 1
vc 1 1 1 1
vc 1 1 1 1
vc 1 1 1 1
vc 1 1 1 1
vc 1 1 1 1
vc 1 1 1 1
vc 1 1 1 1
vc 1 1 1 1
vc 1 1 1 1
vc 1 1 1 1
vc 1 1 1 1
vc 1 1 1 1
vc 1 1 1 1

usemtl Material
usemap Material
f 3/3/3 2/2/2 1/1/1
f 6/6/6 5/5/5 4/4/4
f 9/9/9 8/8/8 7/7/7
f 12/12/12 11/11/11 10/10/10
f 15/15/15 14/14/14 13/13/13
f 18/18/18 17/17/17 16/16/16
f 21/21/21 20/20/20 19/19/19
f 24/24/24 23/23/23 22/22/22
f 27/27/27 26/26/26 25/25/25
f 28/28/28 27/27/27 25/25/25
f 31/31/31 30/30/30 29/29/29
f 32/32/32 31/31/31 29/29/29
f 35/35/35 34/34/34 33/33/33
f 36/36/36 35/35/35 33/33/33
f 39/39/39 38/38/38 37/37/37
f 40/40/40 39/39/39 37/37/37
f 43/43/43 42/42/42 41/41/41
f 44/44/44 43/43/43 41/41/41
f 47/47/47 46/46/46 45/45/45
f 48/48/48 47/47/47 45/45/45
f 51/51/51 50/50/50 49/49/49
f 52/52/52 51/51/51 49/49/49
f 55/55/55 54/54/54 53/53/53
f 56/56/56 55/55/55 53/53/53
f 59/59/59 58/58/58 57/57/57
f 60/60/60 59/59/59 57/57/57
f 63/63/63 62/62/62 61/61/61
f 64/64/64 63/63/63 61/61/61
f 67/67/67 66/66/66 65/65/65
f 68/68/68 67/67/67 65/65/65
f 71/71/71 70/70/70 69/69/69
f 72/72/72 71/71/71 69/69/69
f 75/75/75 74/74/74 73/73/73
f 76/76/76 75/75/75 73/73/73
f 79/79/79 78/78/78 77/77/77
f 80/80/80 79/79/79 77/77/77
f 83/83/83 82/82/82 81/81/81
f 84/84/84 83/83/83 81/81/81
f 87/87/87 86/86/86 85/85/85
f 88/88/88 87/87/87 85/85/85
f 91/91/91 90/90/90 89/89/89
f 92/92/92 91/91/91 89/89/89
f 95/95/95 94/94/94 93/93/93
f 96/96/96 95/95/95 93/93/93
